{"title":"Hatchet III 2013 BRRip 720p x264 AAC - PRiSTiNE [P2PDL]","uid":8760927,"size":515636182,"categoryP":"video","categoryS":"hd___movies","magnet":"?xt=urn:btih:4498fa60f2c0caa5d1e20c0675ca8977395b2426&amp;dn=Hatchet+III+2013+BRRip+720p+x264+AAC+-+PRiSTiNE+%5BP2PDL%5D&amp;tr=udp%3A%2F%2Ftracker.openbittorrent.com%3A80&amp;tr=udp%3A%2F%2Fopen.demonii.com%3A1337&amp;tr=udp%3A%2F%2Ftracker.coppersurfer.tk%3A6969&amp;tr=udp%3A%2F%2Fexodus.desync.com%3A6969","seeders":1,"leechers":0,"uploader":"ValidusVyto","files":-1,"time":1375240793,"description":"_______ Visit us at our Semi Public Bittorrent Community ________\n  &lt;a href=&quot;\nhttp://p2pdl.com&quot; rel=&quot;nofollow&quot; target=&quot;_NEW&quot;&gt;\nhttp://p2pdl.com&lt;/a&gt;  _____________________________ &lt;a href=&quot; http://p2pdl.com&quot; rel=&quot;nofollow&quot; target=&quot;_NEW&quot;&gt; http://p2pdl.com&lt;/a&gt;\n\n\nHatchet III 2013 BRRip 720p x264 AAC - PRiSTiNE\n\n\nGenre: Action | Comedy | Horror \nPlot: A search and recovery team heads into the haunted swamp to pick up the pieces\nand Marybeth learns the secret to ending the voodoo curse that has left Victor Crowley\nhaunting and terrorizing Honey Island Swamp for decades. \nDirector: BJ McDonnell\nStars: Danielle Harris, Kane Hodder, Zach Galligan.\nRated: R for pervasive strong bloody horror violence, and for language.\n\nInfo: &lt;a href=&quot;\nhttp://www.imdb.com/title/tt1870419/&quot; rel=&quot;nofollow&quot; target=&quot;_NEW&quot;&gt;\nhttp://www.imdb.com/title/tt1870419/&lt;/a&gt;\n\nTrailer:\n\n\nFormat                         : MPEG-4\nFile size                      : 484 MiB\nDuration                       : 1h 21mn\nOverall bit rate               : 831 Kbps\nSource                         : 720p.BluRay.x264-ROVERS\n\nVideo\nID                             : 1\nFormat                         : AVC\nBit rate                       : 750 Kbps\nWidth                          : 1 264 pixels\nHeight                         : 528 pixels\nDisplay aspect ratio           : 2.40:1\nFrame rate mode                : Constant\nFrame rate                     : 23.976 fps\nStream size                    : 436 MiB (90%)\nWriting library                : x264 core 130 r2273\n\nAudio\nFormat                         : AAC\nBit rate mode                  : Variable\nBit rate                       : 78.7 Kbps\nChannel(s)                     : 2 channels\nChannel positions              : Front: L R\nSampling rate                  : 48.0 KHz\nStream size                    : 45.8 MiB (9%)\nLanguage                       : English\n\nSubtitle                       : Yes(English)\n &lt;a href=&quot;\nhttp://ultraimg.com/images/GqWY5.png&quot; rel=&quot;nofollow&quot; target=&quot;_NEW&quot;&gt;\nhttp://ultraimg.com/images/GqWY5.png&lt;/a&gt; &lt;a href=&quot;\nhttp://ultraimg.com/images/Lna9r.png&quot; rel=&quot;nofollow&quot; target=&quot;_NEW&quot;&gt;\nhttp://ultraimg.com/images/Lna9r.png&lt;/a&gt; &lt;a href=&quot;\nhttp://ultraimg.com/images/MhLKV.png&quot; rel=&quot;nofollow&quot; target=&quot;_NEW&quot;&gt;\nhttp://ultraimg.com/images/MhLKV.png&lt;/a&gt; &lt;a href=&quot;\nhttp://ultraimg.com/images/aQg5I.png&quot; rel=&quot;nofollow&quot; target=&quot;_NEW&quot;&gt;\nhttp://ultraimg.com/images/aQg5I.png&lt;/a&gt; &lt;a href=&quot;\nhttp://ultraimg.com/images/8c9Ci.png&quot; rel=&quot;nofollow&quot; target=&quot;_NEW&quot;&gt;\nhttp://ultraimg.com/images/8c9Ci.png&lt;/a&gt; &lt;a href=&quot;\nhttp://ultraimg.com/images/ORBlE.png&quot; rel=&quot;nofollow&quot; target=&quot;_NEW&quot;&gt;\nhttp://ultraimg.com/images/ORBlE.png&lt;/a&gt;\n\n----------------------------------------------------------------------------------------------------\n\n\nEncoded using revolutionary 10bit encoding, which enables us to provide you more crispier \nand sharper images at small sizes, just make sure you follow our instructions without a fault.\nRecommend to you to use latest version of VLC player. Install K-Lite Codec Pack or shark007 codecs\nin case of any kind of problem in playback (For non-VLC Media Player users). Alternatively, install\nCore AVC codecs, the fastest decoder that there is coupled with Community Center Codec Pack and play\non Windows Media Player Classic. Check sample to be sure.\nEnjoy!\n\nEncoder Notes:Looking For Early Access To Anything You Can Provide DVDScr, R5, DVDR, BluRay, Direct\nAudio, Music Releases and Seedboxes. We require dedicated servers, so as to do more \nand fast releases of movies.\nIf You Got anything to offer please contact us at &quot;&lt;a class=&quot;__cf_email__&quot; href=&quot;/cdn-cgi/l/email-protection&quot; data-cfemail=&quot;3d4d4f5a7d55484e55135e5250&quot;&gt;[email&amp;#160;protected]&lt;/a&gt;&lt;script cf-hash='f9e31' type=&quot;text/javascript&quot;&gt;\n/* &lt;![CDATA[ */!function(){try{var t=&quot;currentScript&quot;in document?document.currentScript:function(){for(var t=document.getElementsByTagName(&quot;script&quot;),e=t.length;e--;)if(t[e].getAttribute(&quot;cf-hash&quot;))return t[e]}();if(t&amp;&amp;t.previousSibling){var e,r,n,i,c=t.previousSibling,a=c.getAttribute(&quot;data-cfemail&quot;);if(a){for(e=&quot;&quot;,r=parseInt(a.substr(0,2),16),n=2;a.length-n;n+=2)i=parseInt(a.substr(n,2),16)^r,e+=String.fromCharCode(i);e=document.createTextNode(e),c.parentNode.replaceChild(e,c)}}}catch(u){}}();/* ]]&gt; */&lt;/script&gt;&quot;.\n\nFace book Fan Page:  \nSearch P2PDL on FB, and do hit like!!!","torrent":{"xt":"urn:btih:4498fa60f2c0caa5d1e20c0675ca8977395b2426","amp;dn":"Hatchet+III+2013+BRRip+720p+x264+AAC+-+PRiSTiNE+%5BP2PDL%5D","amp;tr":["udp%3A%2F%2Ftracker.openbittorrent.com%3A80","udp%3A%2F%2Fopen.demonii.com%3A1337","udp%3A%2F%2Ftracker.coppersurfer.tk%3A6969","udp%3A%2F%2Fexodus.desync.com%3A6969"],"infoHash":"4498fa60f2c0caa5d1e20c0675ca8977395b2426","infoHashBuffer":{"type":"Buffer","data":[68,152,250,96,242,192,202,165,209,226,12,6,117,202,137,119,57,91,36,38]},"announce":[],"urlList":[]}}